<svg width="941" height="251" viewBox="0 0 941 251" fill="none" xmlns="http://www.w3.org/2000/svg">
<path d="M367.85 160H345.5V84.4H367.85V93.85C369.45 90.55 372.2 87.8999 376.1 85.8999C380 83.7999 384.5 82.7499 389.6 82.7499C398.7 82.7499 405.75 85.5 410.75 91C415.75 96.5 418.25 104.2 418.25 114.1V133.15C418.25 136.05 418.6 138.1 419.3 139.3C420 140.5 421.3 141.1 423.2 141.1H424.7L425.6 140.95V159.85C423.9 160.55 420.65 160.9 415.85 160.9C402.55 160.9 395.9 153.7 395.9 139.3V116.8C395.9 112.3 394.75 108.8 392.45 106.3C390.15 103.8 386.8 102.55 382.4 102.55C378.2 102.55 374.7 103.95 371.9 106.75C369.2 109.55 367.85 113.15 367.85 117.55V160Z" fill="#113A63"/>
<path d="M431.555 122.65V122.05C431.555 110.15 435.405 100.6 443.105 93.3999C450.705 86.0999 460.505 82.45 472.505 82.45C484.005 82.45 493.355 86.1499 500.555 93.5499C507.755 100.85 511.355 109.95 511.355 120.85C511.355 122.65 511.255 125.05 511.055 128.05H453.905C454.105 132.55 456.005 136.15 459.605 138.85C463.305 141.55 468.105 142.9 474.005 142.9C481.105 142.9 487.255 140.45 492.455 135.55L505.505 148C496.605 157.2 485.755 161.8 472.955 161.8C460.655 161.8 450.655 158.25 442.955 151.15C435.355 143.95 431.555 134.45 431.555 122.65ZM454.205 113.5H488.855C488.855 110 487.255 107.05 484.055 104.65C480.855 102.15 477.005 100.9 472.505 100.9C467.605 100.9 463.405 102.15 459.905 104.65C456.405 107.05 454.505 110 454.205 113.5Z" fill="#113A63"/>
<path d="M561.153 82.1499C572.753 82.1499 582.653 86.0499 590.853 93.85C599.053 101.45 603.153 110.9 603.153 122.2C603.153 133.4 599.053 142.9 590.853 150.7C582.553 158.4 572.653 162.25 561.153 162.25C549.553 162.25 539.603 158.4 531.303 150.7C523.203 142.9 519.153 133.4 519.153 122.2C519.153 111 523.203 101.55 531.303 93.85C539.603 86.0499 549.553 82.1499 561.153 82.1499ZM541.503 122.2C541.503 127.8 543.403 132.5 547.203 136.3C551.003 140.1 555.653 142 561.153 142C566.653 142 571.303 140.1 575.103 136.3C578.903 132.3 580.803 127.6 580.803 122.2C580.803 116.7 578.903 112.05 575.103 108.25C571.403 104.35 566.753 102.4 561.153 102.4C555.553 102.4 550.903 104.35 547.203 108.25C543.403 112.05 541.503 116.7 541.503 122.2Z" fill="#113A63"/>
<path d="M653.285 81.9999C665.785 81.9999 676.285 86.7 684.785 96.1L670.685 110.05C665.785 104.85 659.985 102.25 653.285 102.25C647.785 102.25 643.185 104.15 639.485 107.95C635.785 111.65 633.935 116.35 633.935 122.05C633.935 127.75 635.785 132.45 639.485 136.15C643.285 139.85 647.885 141.7 653.285 141.7C659.985 141.7 665.785 139.1 670.685 133.9L684.785 147.85C676.285 157.25 665.785 161.95 653.285 161.95C641.485 161.95 631.585 158.15 623.585 150.55C615.585 142.85 611.585 133.35 611.585 122.05C611.585 110.75 615.585 101.25 623.585 93.5499C631.785 85.8499 641.685 81.9999 653.285 81.9999Z" fill="#113A63"/>
<path d="M689.514 122.2C689.514 111.3 693.064 102.05 700.164 94.45C707.364 86.85 716.314 83.0499 727.014 83.0499C732.614 83.0499 737.464 84.1 741.564 86.2C745.764 88.3 748.414 91 749.514 94.2999V84.4H771.864V133.45C771.864 136.45 772.264 138.6 773.064 139.9C773.964 141.2 775.414 141.85 777.414 141.85C778.114 141.85 779.364 141.75 781.164 141.55V160.15C778.564 160.95 775.214 161.35 771.114 161.35C766.114 161.35 762.014 160.45 758.814 158.65C755.414 156.35 753.164 153.65 752.064 150.55C747.164 157.85 738.814 161.5 727.014 161.5C716.314 161.5 707.364 157.75 700.164 150.25C693.064 142.55 689.514 133.2 689.514 122.2ZM731.064 141.1C736.564 141.1 741.214 139.3 745.014 135.7C748.914 131.9 750.864 127.4 750.864 122.2C750.864 116.9 748.914 112.45 745.014 108.85C741.314 105.15 736.664 103.3 731.064 103.3C725.664 103.3 721.114 105.15 717.414 108.85C713.714 112.45 711.864 116.9 711.864 122.2C711.864 127.5 713.714 132 717.414 135.7C721.214 139.3 725.764 141.1 731.064 141.1Z" fill="#113A63"/>
<path d="M785.255 148.6L798.155 134.8C802.855 140.3 809.755 143.05 818.855 143.05C826.455 143.05 830.255 141 830.255 136.9C830.255 135.4 829.405 134.2 827.705 133.3C825.905 132.3 822.855 131.3 818.555 130.3C814.855 129.4 811.455 128.45 808.355 127.45C796.755 123.35 790.955 116.35 790.955 106.45C790.955 98.75 793.805 92.8 799.505 88.6C805.105 84.2999 812.055 82.1499 820.355 82.1499C830.855 82.1499 839.505 85.3999 846.305 91.8999L835.655 106.6C831.655 102.9 826.355 101.05 819.755 101.05C814.755 101.05 812.255 102.65 812.255 105.85C812.255 107.65 813.305 109 815.405 109.9C816.205 110.2 818.555 110.9 822.455 112C826.355 113 829.855 114.05 832.955 115.15C845.355 119.35 851.555 126.5 851.555 136.6C851.555 144.5 848.705 150.75 843.005 155.35C837.405 159.85 829.155 162.1 818.255 162.1C803.555 162.1 792.555 157.6 785.255 148.6Z" fill="#113A63"/>
<path d="M884.5 160H862.15V55.45H884.5V93.5499C886 90.25 888.65 87.6499 892.45 85.7499C896.25 83.7499 900.65 82.7499 905.65 82.7499C914.55 82.7499 921.45 85.5 926.35 91C931.25 96.5 933.7 104.2 933.7 114.1V133.15C933.7 136.05 934.05 138.1 934.75 139.3C935.45 140.5 936.75 141.1 938.65 141.1C938.95 141.1 939.4 141.1 940 141.1L940.9 140.95V159.85C938.9 160.55 935.7 160.9 931.3 160.9C918 160.9 911.35 153.7 911.35 139.3V116.8C911.35 112.3 910.2 108.8 907.9 106.3C905.7 103.8 902.55 102.55 898.45 102.55C894.35 102.55 891 103.95 888.4 106.75C885.8 109.55 884.5 113.15 884.5 117.55V160Z" fill="#113A63"/>
<path d="M122.939 55.182L66.5918 0V47.3227L122.939 102.449L179.286 47.3227V0L122.939 55.182Z" fill="#1CEFE4"/>
<path d="M55.182 122.939L0 66.5918H47.3227L102.449 122.939L47.3227 179.286H0L55.182 122.939Z" fill="#9966FF"/>
<path d="M195.873 123.222L251 179.286H203.733L148.551 123.222L203.733 66.5918H251L195.873 123.222Z" fill="#9966FF"/>
<path d="M122.939 195.874L179.286 251V203.733L122.939 148.551L66.5918 203.733V251L122.939 195.874Z" fill="#1CEFE4"/>
</svg>
